<mxfile host="app.diagrams.net" modified="2023-05-30T13:39:13.635Z" agent="Mozilla/5.0 (Windows NT 10.0; Win64; x64) AppleWebKit/537.36 (KHTML, like Gecko) Chrome/113.0.0.0 Safari/537.36" version="21.3.5" etag="Rhhhz7MdwvYu3tBbwoM_" type="github">
  <diagram name="PÃ¡gina-1" id="RaMtiiYKtjLu5wNTfdg0">
    <mxGraphModel>
      <root>
        <mxCell id="0" />
        <mxCell id="1" parent="0" />
      </root>
    </mxGraphModel>
  </diagram>
</mxfile>
